<?xml version="1.0" encoding="UTF-8"?>
<svg height="16px" viewBox="0 0 16 16" width="16px" xmlns="http://www.w3.org/2000/svg">
    <g fill="#222222">
        <path d="m 5.078125 3.402344 c -0.273437 -1.789063 1.113281 -3.402344 2.925781 -3.402344 s 3.195313 1.617188 2.917969 3.410156 l -0.945313 6.105469 c -0.148437 0.976563 -0.992187 1.699219 -1.980468 1.699219 c -0.992188 0 -1.832032 -0.722656 -1.980469 -1.703125 z m 0 0"/>
        <path d="m 6.28125 14.398438 c 0 -0.882813 0.71875 -1.597657 1.601562 -1.597657 h 0.246094 c 0.882813 0 1.597656 0.714844 1.597656 1.597657 c 0 0.886718 -0.714843 1.601562 -1.597656 1.601562 h -0.246094 c -0.882812 0 -1.601562 -0.714844 -1.601562 -1.601562 z m 0 0"/>
    </g>
</svg>
