<?xml version="1.0" encoding="UTF-8" standalone="no"?>
<svg
   width="16"
   height="16"
   version="1.1"
   viewBox="0 0 16 16"
   id="svg3"
   xmlns="http://www.w3.org/2000/svg"
   xmlns:svg="http://www.w3.org/2000/svg">
  <defs
     id="defs3" />
  <filter
     id="a"
     x="0"
     y="0"
     width="1"
     height="1">
    <feColorMatrix
       color-interpolation-filters="sRGB"
       values="0 0 0 0 1 0 0 0 0 1 0 0 0 0 1 0 0 0 1 0"
       id="feColorMatrix1" />
  </filter>
  <mask
     id="b">
    <g
       filter="url(#a)"
       id="g1">
      <rect
         x="-1.6"
         y="-1.6"
         width="19.200001"
         height="19.200001"
         fill-opacity="0.3448"
         id="rect1" />
    </g>
  </mask>
  <clipPath
     id="c">
    <rect
       width="192"
       height="152"
       id="rect2"
       x="0"
       y="0" />
  </clipPath>
  <path
     d="m 2.5116,0.91406 c 1.125,-1.125 2.9727,-1.125 4.0977,0 l 8.4844,8.4844 c 1.125,1.1211 1.125,2.9727 0,4.0938 l -1.5938,1.5938 c -1.125,1.125 -2.9727,1.125 -4.0977,0 L 0.9178,6.60166 c -1.125,-1.1211 -1.125,-2.9727 0,-4.0938 z m 0,0 c 1.125,-1.125 2.9727,-1.125 4.0977,0 l 8.4844,8.4844 c 1.125,1.1211 1.125,2.9727 0,4.0938 l -1.5938,1.5938 c -1.125,1.125 -2.9727,1.125 -4.0977,0 L 0.9178,6.60166 c -1.125,-1.1211 -1.125,-2.9727 0,-4.0938 z m 0,0 c 1.125,-1.125 2.9727,-1.125 4.0977,0 l 8.4844,8.4844 c 1.125,1.1211 1.125,2.9727 0,4.0938 l -1.5938,1.5938 c -1.125,1.125 -2.9727,1.125 -4.0977,0 L 0.9178,6.60166 c -1.125,-1.1211 -1.125,-2.9727 0,-4.0938 z m 0,0 c 1.125,-1.125 2.9727,-1.125 4.0977,0 l 8.4844,8.4844 c 1.125,1.1211 1.125,2.9727 0,4.0938 l -1.5938,1.5938 c -1.125,1.125 -2.9727,1.125 -4.0977,0 L 0.9178,6.60166 c -1.125,-1.1211 -1.125,-2.9727 0,-4.0938 z m -0.0059,0 c 1.125,-1.125 2.9727,-1.125 4.0977,0 l 8.4844,8.4844 c 1.125,1.1211 1.125,2.9727 0,4.0938 l -1.5938,1.5938 c -1.125,1.125 -2.9727,1.125 -4.0977,0 L 0.9119,6.60166 c -1.125,-1.1211 -1.125,-2.9727 0,-4.0938 z m 0,0 c 1.125,-1.125 2.9727,-1.125 4.0977,0 l 8.4844,8.4844 c 1.125,1.1211 1.125,2.9727 0,4.0938 l -1.5938,1.5938 c -1.125,1.125 -2.9727,1.125 -4.0977,0 L 0.9119,6.60166 c -1.125,-1.1211 -1.125,-2.9727 0,-4.0938 z m 0,0 c 1.125,-1.125 2.9727,-1.125 4.0977,0 l 8.4844,8.4844 c 1.125,1.1211 1.125,2.9727 0,4.0938 l -1.5938,1.5938 c -1.125,1.125 -2.9727,1.125 -4.0977,0 L 0.9119,6.60166 c -1.125,-1.1211 -1.125,-2.9727 0,-4.0938 z m 0,0 c 1.125,-1.125 2.9727,-1.125 4.0977,0 l 8.4844,8.4844 c 1.125,1.1211 1.125,2.9727 0,4.0938 l -1.5938,1.5938 c -1.125,1.125 -2.9727,1.125 -4.0977,0 L 0.9119,6.60166 c -1.125,-1.1211 -1.125,-2.9727 0,-4.0938 z"
     fill="#241f31"
     stop-color="#000000"
     style="font-variation-settings:normal;fill:#241f31;fill-opacity:1;-inkscape-stroke:none"
     id="path2" />
  <path
     d="m 13.49414,0.91406 c -1.125,-1.125 -2.9727,-1.125 -4.0977,0 l -8.4844,8.4844 c -1.125,1.1211 -1.125,2.9727 0,4.0938 l 1.5938,1.5938 c 1.125,1.125 2.9727,1.125 4.0977,0 l 8.4844,-8.4844 c 1.125,-1.1211 1.125,-2.9727 0,-4.0938 z m 0,0 c -1.125,-1.125 -2.9727,-1.125 -4.0977,0 l -8.4844,8.4844 c -1.125,1.1211 -1.125,2.9727 0,4.0938 l 1.5938,1.5938 c 1.125,1.125 2.9727,1.125 4.0977,0 l 8.4844,-8.4844 c 1.125,-1.1211 1.125,-2.9727 0,-4.0938 z m 0,0 c -1.125,-1.125 -2.9727,-1.125 -4.0977,0 l -8.4844,8.4844 c -1.125,1.1211 -1.125,2.9727 0,4.0938 l 1.5938,1.5938 c 1.125,1.125 2.9727,1.125 4.0977,0 l 8.4844,-8.4844 c 1.125,-1.1211 1.125,-2.9727 0,-4.0938 z m 0,0 c -1.125,-1.125 -2.9727,-1.125 -4.0977,0 l -8.4844,8.4844 c -1.125,1.1211 -1.125,2.9727 0,4.0938 l 1.5938,1.5938 c 1.125,1.125 2.9727,1.125 4.0977,0 l 8.4844,-8.4844 c 1.125,-1.1211 1.125,-2.9727 0,-4.0938 z m 0.0059,0 c -1.125,-1.125 -2.9727,-1.125 -4.0977,0 l -8.4844,8.4844 c -1.125,1.1211 -1.125,2.9727 0,4.0938 l 1.5938,1.5938 c 1.125,1.125 2.9727,1.125 4.0977,0 l 8.4844,-8.4844 c 1.125,-1.1211 1.125,-2.9727 0,-4.0938 z m 0,0 c -1.125,-1.125 -2.9727,-1.125 -4.0977,0 l -8.4844,8.4844 c -1.125,1.1211 -1.125,2.9727 0,4.0938 l 1.5938,1.5938 c 1.125,1.125 2.9727,1.125 4.0977,0 l 8.4844,-8.4844 c 1.125,-1.1211 1.125,-2.9727 0,-4.0938 z m 0,0 c -1.125,-1.125 -2.9727,-1.125 -4.0977,0 l -8.4844,8.4844 c -1.125,1.1211 -1.125,2.9727 0,4.0938 l 1.5938,1.5938 c 1.125,1.125 2.9727,1.125 4.0977,0 l 8.4844,-8.4844 c 1.125,-1.1211 1.125,-2.9727 0,-4.0938 z m 0,0 c -1.125,-1.125 -2.9727,-1.125 -4.0977,0 l -8.4844,8.4844 c -1.125,1.1211 -1.125,2.9727 0,4.0938 l 1.5938,1.5938 c 1.125,1.125 2.9727,1.125 4.0977,0 l 8.4844,-8.4844 c 1.125,-1.1211 1.125,-2.9727 0,-4.0938 z"
     fill="#241f31"
     fill-opacity="0.6"
     stop-color="#000000"
     style="font-variation-settings:normal;-inkscape-stroke:none"
     id="path3" />
</svg>
