<svg width="16" height="16" viewBox="0 0 16 16" fill="none" xmlns="http://www.w3.org/2000/svg">
<g clip-path="url(#clip0_1_2)">
<path d="M12 9.58594L13.5859 8L12 6.41406V4H9.58594L8 2.41406L6.41406 4H4V6.41406L2.41406 8L4 9.58594V12H6.41406L8 13.5859L9.58594 12H12V9.58594ZM14 5.58594L15.707 7.29297C16.0977 7.68359 16.0977 8.31641 15.707 8.70703L14 10.4141V13C14 13.5508 13.5508 14 13 14H10.4141L8.70703 15.707C8.31641 16.0977 7.68359 16.0977 7.29297 15.707L5.58594 14H3C2.48349 14 2.05604 13.605 2.00488 13.1016L2 13V10.4141L0.292969 8.70703C-0.0976562 8.31641 -0.0976563 7.68359 0.292969 7.29297L2 5.58594V3C2 2.44922 2.44922 2 3 2H5.58594L7.29297 0.292969C7.48828 0.097656 7.74219 0 8 0C8.25781 0 8.51172 0.097656 8.70703 0.292969L10.4141 2H13C13.5508 2 14 2.44922 14 3V5.58594Z" fill="#2E3436"/>
<path d="M5 5.5H11V7.5H5V5.5Z" fill="#2E3436"/>
<path d="M5 8.5H11V10.5H5V8.5Z" fill="#2E3436"/>
</g>
<defs>
<clipPath id="clip0_1_2">
<rect width="16" height="16" fill="white"/>
</clipPath>
</defs>
</svg>
