<?xml version="1.0" encoding="UTF-8" standalone="no"?>
<svg
   height="128"
   viewBox="0 0 128 128"
   width="128"
   version="1.1"
   id="svg98"
   xmlns:xlink="http://www.w3.org/1999/xlink"
   xmlns="http://www.w3.org/2000/svg"
   xmlns:svg="http://www.w3.org/2000/svg">
  <defs
     id="defs62">
    <linearGradient
       id="linearGradient108">
      <stop
         style="stop-color:#dc8add;stop-opacity:1;"
         offset="0"
         id="stop108" />
      <stop
         style="stop-color:#813d9c;stop-opacity:1;"
         offset="1"
         id="stop109" />
    </linearGradient>
    <linearGradient
       id="linearGradient107">
      <stop
         style="stop-color:#8ff0a4;stop-opacity:1;"
         offset="0"
         id="stop106" />
      <stop
         style="stop-color:#2ec27e;stop-opacity:1;"
         offset="1"
         id="stop107" />
    </linearGradient>
    <linearGradient
       id="linearGradient104">
      <stop
         style="stop-color:#99c1f1;stop-opacity:1;"
         offset="0"
         id="stop104" />
      <stop
         style="stop-color:#1c71d8;stop-opacity:1;"
         offset="1"
         id="stop105" />
    </linearGradient>
    <linearGradient
       id="linearGradient102">
      <stop
         style="stop-color:#f9f06b;stop-opacity:1;"
         offset="0"
         id="stop102" />
      <stop
         style="stop-color:#f5c211;stop-opacity:1;"
         offset="1"
         id="stop103" />
    </linearGradient>
    <linearGradient
       id="linearGradient100">
      <stop
         style="stop-color:#ffbe6f;stop-opacity:1;"
         offset="0"
         id="stop100" />
      <stop
         style="stop-color:#e66100;stop-opacity:1;"
         offset="1"
         id="stop101" />
    </linearGradient>
    <linearGradient
       id="linearGradient98">
      <stop
         style="stop-color:#f66151;stop-opacity:1;"
         offset="0"
         id="stop98" />
      <stop
         style="stop-color:#c01c28;stop-opacity:1;"
         offset="1"
         id="stop99" />
    </linearGradient>
    <filter
       id="a"
       height="1"
       width="1"
       x="0"
       y="0">
      <feColorMatrix
         color-interpolation-filters="sRGB"
         values="0 0 0 0 1 0 0 0 0 1 0 0 0 0 1 0 0 0 1 0"
         id="feColorMatrix1" />
    </filter>
    <linearGradient
       id="b"
       gradientUnits="userSpaceOnUse">
      <stop
         offset="0"
         stop-color="#986a44"
         id="stop1" />
      <stop
         offset="0.557739"
         stop-color="#986a44"
         id="stop2" />
      <stop
         offset="0.662139"
         stop-color="#c8a182"
         id="stop3" />
      <stop
         offset="0.763067"
         stop-color="#986a44"
         id="stop4" />
      <stop
         offset="1"
         stop-color="#986a44"
         id="stop5" />
    </linearGradient>
    <linearGradient
       id="c"
       gradientTransform="matrix(0.707107,0.707107,0.707107,-0.707107,198.39191,-127.93102)"
       x1="29.496105"
       x2="69.643059"
       xlink:href="#b"
       y1="-292.00034"
       y2="-271.86746" />
    <linearGradient
       id="d"
       gradientTransform="rotate(45,253.62226,175.51478)"
       gradientUnits="userSpaceOnUse"
       x1="62.000015"
       x2="62.000015"
       y1="185.41776"
       y2="284">
      <stop
         offset="0"
         stop-color="#cdab8f"
         id="stop6" />
      <stop
         offset="0.296421"
         stop-color="#cdab8f"
         id="stop7" />
      <stop
         offset="0.36937"
         stop-color="#d8c0ae"
         id="stop8" />
      <stop
         offset="0.639459"
         stop-color="#cdab8f"
         id="stop9" />
      <stop
         offset="0.731863"
         stop-color="#c49978"
         id="stop10" />
      <stop
         offset="1"
         stop-color="#cdab8f"
         id="stop11" />
    </linearGradient>
    <mask
       id="e">
      <g
         filter="url(#a)"
         id="g11">
        <rect
           fill-opacity="0.344804"
           height="153.60001"
           width="153.60001"
           x="-12.8"
           y="-12.8"
           id="rect11" />
      </g>
    </mask>
    <linearGradient
       id="f"
       gradientTransform="rotate(135,-8.6821104,-78.457007)"
       x1="29.496105"
       x2="69.643059"
       xlink:href="#b"
       y1="-292.00034"
       y2="-271.86746" />
    <linearGradient
       id="g"
       gradientTransform="matrix(-0.707107,0.707107,0.707107,0.707107,-70.298786,-127.79532)"
       gradientUnits="userSpaceOnUse"
       x1="62.000015"
       x2="62.000015"
       y1="185.41776"
       y2="284">
      <stop
         offset="0"
         stop-color="#cdab8f"
         id="stop12" />
      <stop
         offset="0.296421"
         stop-color="#cdab8f"
         id="stop13" />
      <stop
         offset="0.36937"
         stop-color="#cdab8f"
         id="stop14" />
      <stop
         offset="0.639459"
         stop-color="#cdab8f"
         id="stop15" />
      <stop
         offset="0.731863"
         stop-color="#c9a284"
         id="stop16" />
      <stop
         offset="1"
         stop-color="#cdab8f"
         id="stop17" />
    </linearGradient>
    <linearGradient
       id="h"
       gradientUnits="userSpaceOnUse"
       x1="40.177177"
       x2="40.177177"
       y1="33.124268"
       y2="38.010468">
      <stop
         offset="0"
         stop-color="#ffffff"
         id="stop18" />
      <stop
         offset="1"
         stop-color="#e9dacd"
         id="stop19" />
    </linearGradient>
    <linearGradient
       id="i"
       gradientTransform="matrix(-0.756663,0.756663,-0.756663,-0.756663,-4.5563,-188.89442)"
       gradientUnits="userSpaceOnUse"
       x1="121.62237"
       x2="121.62237"
       y1="-230.51682"
       y2="-233.34525">
      <stop
         offset="0"
         stop-color="#986a44"
         stop-opacity="0.32549"
         id="stop20" />
      <stop
         offset="1"
         stop-color="#986a44"
         stop-opacity="0"
         id="stop21" />
    </linearGradient>
    <linearGradient
       id="j"
       gradientUnits="userSpaceOnUse">
      <stop
         offset="0"
         stop-color="#e9dacd"
         stop-opacity="0.145098"
         id="stop22" />
      <stop
         offset="1"
         stop-color="#e9dacd"
         stop-opacity="0"
         id="stop23" />
    </linearGradient>
    <linearGradient
       id="k"
       gradientTransform="rotate(-45,-207.62237,-85.999909)"
       x1="-122.32948"
       x2="-122.32948"
       xlink:href="#j"
       y1="201.52544"
       y2="200.11122" />
    <linearGradient
       id="l"
       gradientTransform="matrix(0.756663,-0.756663,0.756663,0.756663,-4.5563,-188.89442)"
       x1="-122.32948"
       x2="-122.32948"
       xlink:href="#j"
       y1="201.52544"
       y2="200.11122" />
    <clipPath
       id="m">
      <path
         d="M 0,0 H 128 V 128 H 0 Z m 0,0"
         id="path23" />
    </clipPath>
    <mask
       id="n">
      <g
         filter="url(#a)"
         id="g23">
        <rect
           fill-opacity="0.344804"
           height="221.18401"
           width="221.18401"
           x="-46.591999"
           y="-46.591999"
           id="rect23" />
      </g>
    </mask>
    <clipPath
       id="o">
      <rect
         height="152"
         width="192"
         id="rect24"
         x="0"
         y="0" />
    </clipPath>
    <g
       id="p"
       clip-path="url(#o)">
      <path
         d="m 84.769531,97.371094 c -7.03125,7.031246 -18.425781,7.031246 -25.457031,0 -7.027344,-7.027344 -7.027344,-18.425782 0,-25.453125 7.03125,-7.03125 18.425781,-7.03125 25.457031,0 7.027344,7.027343 7.027344,18.425781 0,25.453125 z m 0,0"
         fill="#b5835a"
         id="path24" />
    </g>
    <clipPath
       id="q">
      <rect
         height="128"
         width="128"
         id="rect25"
         x="0"
         y="0" />
    </clipPath>
    <clipPath
       id="r">
      <rect
         height="128"
         width="128"
         id="rect26"
         x="0"
         y="0" />
    </clipPath>
    <mask
       id="s">
      <g
         filter="url(#a)"
         id="g59">
        <g
           clip-path="url(#r)"
           filter="url(#a)"
           id="g58">
          <g
             clip-path="url(#q)"
             id="g57">
            <path
               d="m 20.347656,102.73047 10.6875,10.69141 c 4.859375,4.85546 12.738282,4.85546 17.59375,0 L 107.40234,54.648438 c 4.85938,-4.859376 4.85938,-12.738282 0,-17.597657 l -10.687496,-10.6875 c -4.859375,-4.859375 -12.738282,-4.859375 -17.597656,0 L 20.347656,85.136719 c -4.859375,4.859375 -4.859375,12.734375 0,17.593751 z m 0,0"
               fill="url(#c)"
               id="path26" />
            <path
               d="m 96.613281,24.851562 11.222659,11.21875 c 4.71094,4.714844 4.69531,12.371094 -0.0391,17.105469 L 48.570312,112.39844 c -4.734374,4.73437 -12.390624,4.7539 -17.101562,0.0391 L 20.246094,101.21875 C 15.535156,96.507812 15.550781,88.847656 20.285156,84.117188 L 79.511719,24.890625 c 4.734375,-4.734375 12.390625,-4.753906 17.101562,-0.03906 z m 0,0"
               fill="url(#d)"
               id="path27" />
            <path
               d="m 90.910156,33.289062 c -0.78125,0.78125 -2.046875,0.78125 -2.828125,0 -0.78125,-0.78125 -0.78125,-2.046874 0,-2.828124 0.78125,-0.78125 2.046875,-0.78125 2.828125,0 0.78125,0.78125 0.78125,2.046874 0,2.828124 z m 0,0"
               fill="#e9dacd"
               id="path28" />
            <path
               d="m 85.253906,38.945312 c -0.78125,0.78125 -2.046875,0.78125 -2.828125,0 -0.78125,-0.78125 -0.78125,-2.046874 0,-2.828124 0.78125,-0.78125 2.046875,-0.78125 2.828125,0 0.78125,0.78125 0.78125,2.046874 0,2.828124 z m 0,0"
               fill="#e9dacd"
               id="path29" />
            <path
               d="m 96.570312,38.945312 c -0.78125,0.78125 -2.050781,0.78125 -2.832031,0 -0.777343,-0.78125 -0.777343,-2.046874 0,-2.828124 0.78125,-0.78125 2.050781,-0.78125 2.832031,0 0.777344,0.78125 0.777344,2.046874 0,2.828124 z m 0,0"
               fill="#e9dacd"
               id="path30" />
            <path
               d="m 90.910156,44.601562 c -0.78125,0.78125 -2.046875,0.78125 -2.828125,0 -0.78125,-0.78125 -0.78125,-2.046874 0,-2.828124 0.78125,-0.78125 2.046875,-0.78125 2.828125,0 0.78125,0.78125 0.78125,2.046874 0,2.828124 z m 0,0"
               fill="#e9dacd"
               id="path31" />
            <path
               d="m 102.22656,44.601562 c -0.78125,0.78125 -2.04687,0.78125 -2.828122,0 -0.78125,-0.78125 -0.78125,-2.046874 0,-2.828124 0.781252,-0.78125 2.046872,-0.78125 2.828122,0 0.78125,0.78125 0.78125,2.046874 0,2.828124 z m 0,0"
               fill="#e9dacd"
               id="path32" />
            <path
               d="m 96.570312,50.261719 c -0.78125,0.777343 -2.050781,0.777343 -2.832031,0 -0.777343,-0.78125 -0.777343,-2.050781 0,-2.832031 0.78125,-0.777344 2.050781,-0.777344 2.832031,0 0.777344,0.78125 0.777344,2.050781 0,2.832031 z m 0,0"
               fill="#e9dacd"
               id="path33" />
            <path
               d="m 34.34375,89.859375 c -0.78125,0.78125 -2.046875,0.78125 -2.828125,0 -0.78125,-0.78125 -0.78125,-2.050781 0,-2.828125 0.78125,-0.78125 2.046875,-0.78125 2.828125,0 0.78125,0.777344 0.78125,2.046875 0,2.828125 z m 0,0"
               fill="#e9dacd"
               id="path34" />
            <path
               d="m 28.6875,95.515625 c -0.78125,0.78125 -2.046875,0.78125 -2.828125,0 -0.78125,-0.78125 -0.78125,-2.046875 0,-2.828125 0.78125,-0.78125 2.046875,-0.78125 2.828125,0 0.78125,0.78125 0.78125,2.046875 0,2.828125 z m 0,0"
               fill="#e9dacd"
               id="path35" />
            <path
               d="m 40,95.515625 c -0.78125,0.78125 -2.046875,0.78125 -2.828125,0 -0.78125,-0.78125 -0.78125,-2.046875 0,-2.828125 0.78125,-0.78125 2.046875,-0.78125 2.828125,0 0.78125,0.78125 0.78125,2.046875 0,2.828125 z m 0,0"
               fill="#e9dacd"
               id="path36" />
            <path
               d="m 34.34375,101.17188 c -0.78125,0.78125 -2.046875,0.78125 -2.828125,0 -0.78125,-0.78125 -0.78125,-2.04688 0,-2.82813 0.78125,-0.78125 2.046875,-0.78125 2.828125,0 0.78125,0.78125 0.78125,2.04688 0,2.82813 z m 0,0"
               fill="#e9dacd"
               id="path37" />
            <path
               d="m 45.65625,101.17188 c -0.78125,0.78125 -2.046875,0.78125 -2.828125,0 -0.78125,-0.78125 -0.78125,-2.04688 0,-2.82813 0.78125,-0.78125 2.046875,-0.78125 2.828125,0 0.78125,0.78125 0.78125,2.04688 0,2.82813 z m 0,0"
               fill="#e9dacd"
               id="path38" />
            <path
               d="m 40,106.82813 c -0.78125,0.78125 -2.046875,0.78125 -2.828125,0 -0.78125,-0.78125 -0.78125,-2.04688 0,-2.82813 0.78125,-0.78125 2.046875,-0.78125 2.828125,0 0.78125,0.78125 0.78125,2.04688 0,2.82813 z m 0,0"
               fill="#e9dacd"
               id="path39" />
            <g
               clip-path="url(#m)"
               id="g40">
              <g
                 mask="url(#n)"
                 id="g39">
                <use
                   transform="translate(-8,-16)"
                   xlink:href="#p"
                   id="use39" />
              </g>
            </g>
            <path
               d="m 70.078125,59.78125 -5,5 c -0.382813,0.378906 -1,0.378906 -1.382813,0 l -5,-5 c -0.378906,-0.382812 -1,-0.382812 -1.378906,0 l -2.136718,2.136719 c -0.382813,0.382812 -0.382813,1 0,1.382812 l 4.996093,5 c 0.382813,0.378907 0.382813,1 0,1.378907 l -4.996093,5 c -0.382813,0.382812 -0.382813,1 0,1.382812 l 2.136718,2.136719 c 0.378906,0.382812 1,0.382812 1.378906,0 l 5,-5 c 0.382813,-0.382813 1,-0.382813 1.382813,0 l 5,5 c 0.378906,0.382812 1,0.382812 1.378906,0 L 73.597656,76.0625 c 0.378906,-0.382812 0.378906,-1 0,-1.382812 l -5,-5 c -0.382812,-0.378907 -0.382812,-1 0,-1.378907 l 5,-5 c 0.378906,-0.382812 0.378906,-1 0,-1.382812 L 71.457031,59.78125 c -0.378906,-0.382812 -1,-0.382812 -1.378906,0 z m 0,0"
               fill="#63452c"
               fill-opacity="0.247059"
               id="path40" />
            <path
               d="m 22.753906,35.125 -2.0625,2.0625 c -4.875,4.875 -4.875,12.722656 0,17.59375 l 58.769532,58.77344 c 4.875,4.875 12.722656,4.875 17.597656,0 l 10.687496,-10.6875 c 4.875,-4.875002 4.875,-12.722659 0,-17.597659 L 57.601562,35.125 Z m 0,0"
               fill="url(#f)"
               id="path41" />
            <path
               d="m 23.339844,33.125 -3.082032,3.082031 c -4.726562,4.726563 -4.707031,12.355469 0.03906,17.101563 l 59.226563,59.226566 c 4.746093,4.75 12.375,4.76562 17.101562,0.0391 L 107.84766,101.35551 C 112.57422,96.628906 112.55469,89 107.80859,84.25 L 56.679688,33.125 Z m 0,0"
               fill="url(#g)"
               id="path42" />
            <path
               d="m 37.179688,44.738281 c 0.78125,0.78125 2.050781,0.78125 2.832031,0 0.777343,-0.78125 0.777343,-2.046875 0,-2.828125 -0.78125,-0.78125 -2.050781,-0.78125 -2.832031,0 -0.777344,0.78125 -0.777344,2.046875 0,2.828125 z m 0,0"
               fill="#e9dacd"
               id="path43" />
            <path
               d="m 23.339844,33.125 h 33.339844 l 0.800781,0.796875 -8.898438,8.601563 c -4.828125,4.667968 -12.375,4.765624 -17.101562,0.03906 z m 0,0"
               fill-opacity="0.192157"
               id="path44" />
            <path
               d="m 23.339844,33.125 h 33.339844 l -8.097657,8.160156 c -4.730469,4.769532 -12.375,4.765625 -17.101562,0.03906 z m 0,0"
               fill="url(#h)"
               id="path45" />
            <path
               d="m 25.867188,44.738281 c 0.78125,0.78125 2.046874,0.78125 2.828124,0 0.78125,-0.78125 0.78125,-2.046875 0,-2.828125 -0.78125,-0.78125 -2.046874,-0.78125 -2.828124,0 -0.78125,0.78125 -0.78125,2.046875 0,2.828125 z m 0,0"
               fill="#e9dacd"
               id="path46" />
            <path
               d="m 31.523438,50.394531 c 0.78125,0.78125 2.046874,0.78125 2.828124,0 0.78125,-0.78125 0.78125,-2.046875 0,-2.828125 -0.78125,-0.78125 -2.046874,-0.78125 -2.828124,0 -0.78125,0.78125 -0.78125,2.046875 0,2.828125 z m 0,0"
               fill="#e9dacd"
               id="path47" />
            <path
               d="m 93.75,89.992188 c 0.78125,0.78125 2.046875,0.78125 2.828125,0 0.78125,-0.78125 0.78125,-2.046876 0,-2.828126 -0.78125,-0.78125 -2.046875,-0.78125 -2.828125,0 -0.78125,0.78125 -0.78125,2.046876 0,2.828126 z m 0,0"
               fill="#e9dacd"
               id="path48" />
            <path
               d="m 99.40625,95.652344 c 0.78125,0.777344 2.04688,0.777344 2.82813,0 0.78125,-0.78125 0.78125,-2.050782 0,-2.832032 -0.78125,-0.78125 -2.04688,-0.78125 -2.82813,0 -0.78125,0.78125 -0.78125,2.050782 0,2.832032 z m 0,0"
               fill="#e9dacd"
               id="path49" />
            <path
               d="m 88.09375,95.652344 c 0.78125,0.777344 2.046875,0.777344 2.828125,0 0.78125,-0.78125 0.78125,-2.050782 0,-2.832032 -0.78125,-0.78125 -2.046875,-0.78125 -2.828125,0 -0.78125,0.78125 -0.78125,2.050782 0,2.832032 z m 0,0"
               fill="#e9dacd"
               id="path50" />
            <path
               d="m 93.75,101.30859 c 0.78125,0.78125 2.046875,0.78125 2.828125,0 0.78125,-0.78125 0.78125,-2.046871 0,-2.828121 -0.78125,-0.78125 -2.046875,-0.78125 -2.828125,0 -0.78125,0.78125 -0.78125,2.046871 0,2.828121 z m 0,0"
               fill="#e9dacd"
               id="path51" />
            <path
               d="m 82.4375,101.30859 c 0.78125,0.78125 2.046875,0.78125 2.828125,0 0.78125,-0.78125 0.78125,-2.046871 0,-2.828121 -0.78125,-0.78125 -2.046875,-0.78125 -2.828125,0 -0.78125,0.78125 -0.78125,2.046871 0,2.828121 z m 0,0"
               fill="#e9dacd"
               id="path52" />
            <path
               d="m 88.09375,106.96484 c 0.78125,0.78125 2.046875,0.78125 2.828125,0 0.78125,-0.78125 0.78125,-2.04687 0,-2.82812 -0.78125,-0.78125 -2.046875,-0.78125 -2.828125,0 -0.78125,0.78125 -0.78125,2.04687 0,2.82812 z m 0,0"
               fill="#e9dacd"
               id="path53" />
            <path
               d="M 84.15625,75.605469 71.609375,88.152344 c -2.632813,2.628906 -6.894531,2.628906 -9.527344,0 L 50.164062,76.234375 c -2.628906,-2.632813 -2.628906,-6.894531 0,-9.527344 L 62.710938,54.160156 c 2.632812,-2.628906 6.894531,-2.628906 9.527343,0 L 84.15625,66.078125 c 2.628906,2.632813 2.628906,6.894531 0,9.527344 z m 0,0"
               fill="url(#i)"
               id="path54" />
            <path
               d="M 47.125,62.953125 58.851562,51.230469 c 2.457032,-2.460938 6.441407,-2.460938 8.902344,0 l 11.136719,11.136719 c 2.457031,2.457031 2.457031,6.441406 0,8.902343 L 67.164062,82.992188 c -2.457031,2.457031 -6.441406,2.457031 -8.902343,0 L 47.125,71.855469 c -2.457031,-2.457031 -2.457031,-6.445313 0,-8.902344 z m 0,0"
               fill="url(#k)"
               id="path55" />
            <path
               d="M 49.257812,65.039062 60.984375,53.316406 c 2.457031,-2.460937 6.441406,-2.460937 8.902344,0 l 11.136719,11.136719 c 2.457031,2.457031 2.457031,6.441406 0,8.898437 L 69.296875,85.078125 c -2.457031,2.457031 -6.445313,2.457031 -8.902344,0 L 49.257812,73.941406 c -2.457031,-2.457031 -2.457031,-6.445312 0,-8.902344 z m 0,0"
               fill="#c9a284"
               id="path56" />
            <path
               d="M 45.871094,62.523438 58.417969,49.980469 c 2.632812,-2.632813 6.894531,-2.632813 9.527343,0 l 11.917969,11.914062 c 2.628907,2.632813 2.628907,6.898438 0,9.527344 L 67.316406,83.96875 c -2.632812,2.628906 -6.894531,2.628906 -9.527344,0 L 45.871094,72.050781 c -2.628906,-2.628906 -2.628906,-6.894531 0,-9.527343 z m 0,0"
               fill="url(#l)"
               id="path57" />
          </g>
        </g>
      </g>
    </mask>
    <mask
       id="t">
      <g
         filter="url(#a)"
         id="g60">
        <rect
           fill-opacity="0.8"
           height="184.32001"
           width="184.32001"
           x="-28.16"
           y="-28.16"
           id="rect59" />
      </g>
    </mask>
    <clipPath
       id="v">
      <rect
         height="128"
         width="128"
         id="rect61"
         x="0"
         y="0" />
    </clipPath>
    <clipPath
       id="w">
      <rect
         height="128"
         width="128"
         id="rect62"
         x="0"
         y="0" />
    </clipPath>
    <linearGradient
       xlink:href="#linearGradient98"
       id="linearGradient99"
       x1="26.508125"
       y1="70.035156"
       x2="26.508125"
       y2="138.60547"
       gradientUnits="userSpaceOnUse" />
    <linearGradient
       xlink:href="#linearGradient100"
       id="linearGradient101"
       x1="47.593994"
       y1="70.035149"
       x2="47.593994"
       y2="138.60542"
       gradientUnits="userSpaceOnUse" />
    <linearGradient
       xlink:href="#linearGradient102"
       id="linearGradient103"
       x1="68.959061"
       y1="70.031616"
       x2="68.959061"
       y2="138.60974"
       gradientUnits="userSpaceOnUse"
       gradientTransform="translate(-0.154374,-3.7489e-4)" />
    <linearGradient
       xlink:href="#linearGradient107"
       id="linearGradient105"
       x1="90.019531"
       y1="70.03125"
       x2="90.019531"
       y2="138.60938"
       gradientUnits="userSpaceOnUse" />
    <linearGradient
       xlink:href="#linearGradient104"
       id="linearGradient106"
       gradientUnits="userSpaceOnUse"
       x1="90.019531"
       y1="70.03125"
       x2="90.019531"
       y2="138.60938"
       gradientTransform="translate(21.214841)" />
    <linearGradient
       xlink:href="#linearGradient108"
       id="linearGradient109"
       x1="113.08008"
       y1="80.640625"
       x2="113.08008"
       y2="110.48047"
       gradientUnits="userSpaceOnUse" />
    <linearGradient
       xlink:href="#b"
       id="linearGradient2"
       gradientTransform="matrix(0.707107,0.707107,0.707107,-0.707107,198.39191,-127.93102)"
       x1="29.496105"
       y1="-292.00034"
       x2="69.643059"
       y2="-271.86746" />
    <linearGradient
       xlink:href="#d"
       id="linearGradient3"
       gradientUnits="userSpaceOnUse"
       gradientTransform="rotate(45,253.62226,175.51478)"
       x1="62.000015"
       y1="185.41776"
       x2="62.000015"
       y2="284" />
    <linearGradient
       xlink:href="#b"
       id="linearGradient4"
       gradientTransform="rotate(135,-8.6821104,-78.457007)"
       x1="29.496105"
       y1="-292.00034"
       x2="69.643059"
       y2="-271.86746" />
    <linearGradient
       xlink:href="#g"
       id="linearGradient5"
       gradientUnits="userSpaceOnUse"
       gradientTransform="matrix(-0.707107,0.707107,0.707107,0.707107,-70.298786,-127.79532)"
       x1="62.000015"
       y1="185.41776"
       x2="62.000015"
       y2="284" />
    <linearGradient
       xlink:href="#h"
       id="linearGradient6"
       gradientUnits="userSpaceOnUse"
       x1="40.177177"
       y1="33.124268"
       x2="40.177177"
       y2="38.010468" />
    <linearGradient
       xlink:href="#i"
       id="linearGradient7"
       gradientUnits="userSpaceOnUse"
       gradientTransform="matrix(-0.756663,0.756663,-0.756663,-0.756663,-4.5563,-188.89442)"
       x1="121.62237"
       y1="-230.51682"
       x2="121.62237"
       y2="-233.34525" />
    <linearGradient
       xlink:href="#j"
       id="linearGradient8"
       gradientTransform="rotate(-45,-207.62237,-85.999909)"
       x1="-122.32948"
       y1="201.52544"
       x2="-122.32948"
       y2="200.11122" />
    <linearGradient
       xlink:href="#j"
       id="linearGradient9"
       gradientTransform="matrix(0.756663,-0.756663,0.756663,0.756663,-4.5563,-188.89442)"
       x1="-122.32948"
       y1="201.52544"
       x2="-122.32948"
       y2="200.11122" />
  </defs>
  <path
     d="m 20.347656,102.73047 10.6875,10.69141 c 4.859375,4.85546 12.738282,4.85546 17.59375,0 L 107.40234,54.648438 c 4.85938,-4.859376 4.85938,-12.738282 0,-17.597657 l -10.687496,-10.6875 c -4.859375,-4.859375 -12.738282,-4.859375 -17.597656,0 L 20.347656,85.136719 c -4.859375,4.859375 -4.859375,12.734375 0,17.593751 z m 0,0"
     fill="url(#c)"
     id="path62"
     style="fill:url(#linearGradient2)" />
  <path
     d="m 96.613281,24.851562 11.222659,11.21875 c 4.71094,4.714844 4.69531,12.371094 -0.0391,17.105469 L 48.570312,112.39844 c -4.734374,4.73437 -12.390624,4.7539 -17.101562,0.0391 L 20.246094,101.21875 C 15.535156,96.507812 15.550781,88.847656 20.285156,84.117188 L 79.511719,24.890625 c 4.734375,-4.734375 12.390625,-4.753906 17.101562,-0.03906 z m 0,0"
     fill="url(#d)"
     id="path63"
     style="fill:url(#linearGradient3)" />
  <g
     fill="#e9dacd"
     id="g75">
    <path
       d="m 90.910156,33.289062 c -0.78125,0.78125 -2.046875,0.78125 -2.828125,0 -0.78125,-0.78125 -0.78125,-2.046874 0,-2.828124 0.78125,-0.78125 2.046875,-0.78125 2.828125,0 0.78125,0.78125 0.78125,2.046874 0,2.828124 z m 0,0"
       id="path64" />
    <path
       d="m 85.253906,38.945312 c -0.78125,0.78125 -2.046875,0.78125 -2.828125,0 -0.78125,-0.78125 -0.78125,-2.046874 0,-2.828124 0.78125,-0.78125 2.046875,-0.78125 2.828125,0 0.78125,0.78125 0.78125,2.046874 0,2.828124 z m 0,0"
       id="path65" />
    <path
       d="m 96.570312,38.945312 c -0.78125,0.78125 -2.050781,0.78125 -2.832031,0 -0.777343,-0.78125 -0.777343,-2.046874 0,-2.828124 0.78125,-0.78125 2.050781,-0.78125 2.832031,0 0.777344,0.78125 0.777344,2.046874 0,2.828124 z m 0,0"
       id="path66" />
    <path
       d="m 90.910156,44.601562 c -0.78125,0.78125 -2.046875,0.78125 -2.828125,0 -0.78125,-0.78125 -0.78125,-2.046874 0,-2.828124 0.78125,-0.78125 2.046875,-0.78125 2.828125,0 0.78125,0.78125 0.78125,2.046874 0,2.828124 z m 0,0"
       id="path67" />
    <path
       d="m 102.22656,44.601562 c -0.78125,0.78125 -2.04687,0.78125 -2.828122,0 -0.78125,-0.78125 -0.78125,-2.046874 0,-2.828124 0.781252,-0.78125 2.046872,-0.78125 2.828122,0 0.78125,0.78125 0.78125,2.046874 0,2.828124 z m 0,0"
       id="path68" />
    <path
       d="m 96.570312,50.261719 c -0.78125,0.777343 -2.050781,0.777343 -2.832031,0 -0.777343,-0.78125 -0.777343,-2.050781 0,-2.832031 0.78125,-0.777344 2.050781,-0.777344 2.832031,0 0.777344,0.78125 0.777344,2.050781 0,2.832031 z m 0,0"
       id="path69" />
    <path
       d="m 34.34375,89.859375 c -0.78125,0.78125 -2.046875,0.78125 -2.828125,0 -0.78125,-0.78125 -0.78125,-2.050781 0,-2.828125 0.78125,-0.78125 2.046875,-0.78125 2.828125,0 0.78125,0.777344 0.78125,2.046875 0,2.828125 z m 0,0"
       id="path70" />
    <path
       d="m 28.6875,95.515625 c -0.78125,0.78125 -2.046875,0.78125 -2.828125,0 -0.78125,-0.78125 -0.78125,-2.046875 0,-2.828125 0.78125,-0.78125 2.046875,-0.78125 2.828125,0 0.78125,0.78125 0.78125,2.046875 0,2.828125 z m 0,0"
       id="path71" />
    <path
       d="m 40,95.515625 c -0.78125,0.78125 -2.046875,0.78125 -2.828125,0 -0.78125,-0.78125 -0.78125,-2.046875 0,-2.828125 0.78125,-0.78125 2.046875,-0.78125 2.828125,0 0.78125,0.78125 0.78125,2.046875 0,2.828125 z m 0,0"
       id="path72" />
    <path
       d="m 34.34375,101.17188 c -0.78125,0.78125 -2.046875,0.78125 -2.828125,0 -0.78125,-0.78125 -0.78125,-2.04688 0,-2.82813 0.78125,-0.78125 2.046875,-0.78125 2.828125,0 0.78125,0.78125 0.78125,2.04688 0,2.82813 z m 0,0"
       id="path73" />
    <path
       d="m 45.65625,101.17188 c -0.78125,0.78125 -2.046875,0.78125 -2.828125,0 -0.78125,-0.78125 -0.78125,-2.04688 0,-2.82813 0.78125,-0.78125 2.046875,-0.78125 2.828125,0 0.78125,0.78125 0.78125,2.04688 0,2.82813 z m 0,0"
       id="path74" />
    <path
       d="m 40,106.82813 c -0.78125,0.78125 -2.046875,0.78125 -2.828125,0 -0.78125,-0.78125 -0.78125,-2.04688 0,-2.82813 0.78125,-0.78125 2.046875,-0.78125 2.828125,0 0.78125,0.78125 0.78125,2.04688 0,2.82813 z m 0,0"
       id="path75" />
  </g>
  <g
     mask="url(#e)"
     id="g76">
    <use
       transform="translate(-8,-16)"
       xlink:href="#p"
       id="use75" />
  </g>
  <path
     d="m 70.078125,59.78125 -5,5 c -0.382813,0.378906 -1,0.378906 -1.382813,0 l -5,-5 c -0.378906,-0.382812 -1,-0.382812 -1.378906,0 l -2.136718,2.136719 c -0.382813,0.382812 -0.382813,1 0,1.382812 l 4.996093,5 c 0.382813,0.378907 0.382813,1 0,1.378907 l -4.996093,5 c -0.382813,0.382812 -0.382813,1 0,1.382812 l 2.136718,2.136719 c 0.378906,0.382812 1,0.382812 1.378906,0 l 5,-5 c 0.382813,-0.382813 1,-0.382813 1.382813,0 l 5,5 c 0.378906,0.382812 1,0.382812 1.378906,0 L 73.597656,76.0625 c 0.378906,-0.382812 0.378906,-1 0,-1.382812 l -5,-5 c -0.382812,-0.378907 -0.382812,-1 0,-1.378907 l 5,-5 c 0.378906,-0.382812 0.378906,-1 0,-1.382812 L 71.457031,59.78125 c -0.378906,-0.382812 -1,-0.382812 -1.378906,0 z m 0,0"
     fill="#63452c"
     fill-opacity="0.247059"
     id="path76" />
  <path
     d="m 22.753906,35.125 -2.0625,2.0625 c -4.875,4.875 -4.875,12.722656 0,17.59375 l 58.769532,58.77344 c 4.875,4.875 12.722656,4.875 17.597656,0 l 10.687496,-10.6875 c 4.875,-4.875002 4.875,-12.722659 0,-17.597659 L 57.601562,35.125 Z m 0,0"
     fill="url(#f)"
     id="path77"
     style="fill:url(#linearGradient4)" />
  <path
     d="m 23.339844,33.125 -3.082032,3.082031 c -4.726562,4.726563 -4.707031,12.355469 0.03906,17.101563 l 59.226563,59.226566 c 4.746093,4.75 12.375,4.76562 17.101562,0.0391 L 107.84766,101.35551 C 112.57422,96.628906 112.55469,89 107.80859,84.25 L 56.679688,33.125 Z m 0,0"
     fill="url(#g)"
     id="path78"
     style="fill:url(#linearGradient5)" />
  <path
     d="m 37.179688,44.738281 c 0.78125,0.78125 2.050781,0.78125 2.832031,0 0.777343,-0.78125 0.777343,-2.046875 0,-2.828125 -0.78125,-0.78125 -2.050781,-0.78125 -2.832031,0 -0.777344,0.78125 -0.777344,2.046875 0,2.828125 z m 0,0"
     fill="#e9dacd"
     id="path79" />
  <path
     d="m 23.339844,33.125 h 33.339844 l 0.800781,0.796875 -8.898438,8.601563 c -4.828125,4.667968 -12.375,4.765624 -17.101562,0.03906 z m 0,0"
     fill-opacity="0.192157"
     id="path80" />
  <path
     d="m 23.339844,33.125 h 33.339844 l -8.097657,8.160156 c -4.730469,4.769532 -12.375,4.765625 -17.101562,0.03906 z m 0,0"
     fill="url(#h)"
     id="path81"
     style="fill:url(#linearGradient6)" />
  <path
     d="m 25.867188,44.738281 c 0.78125,0.78125 2.046874,0.78125 2.828124,0 0.78125,-0.78125 0.78125,-2.046875 0,-2.828125 -0.78125,-0.78125 -2.046874,-0.78125 -2.828124,0 -0.78125,0.78125 -0.78125,2.046875 0,2.828125 z m 0,0"
     fill="#e9dacd"
     id="path82" />
  <path
     d="m 31.523438,50.394531 c 0.78125,0.78125 2.046874,0.78125 2.828124,0 0.78125,-0.78125 0.78125,-2.046875 0,-2.828125 -0.78125,-0.78125 -2.046874,-0.78125 -2.828124,0 -0.78125,0.78125 -0.78125,2.046875 0,2.828125 z m 0,0"
     fill="#e9dacd"
     id="path83" />
  <path
     d="m 93.75,89.992188 c 0.78125,0.78125 2.046875,0.78125 2.828125,0 0.78125,-0.78125 0.78125,-2.046876 0,-2.828126 -0.78125,-0.78125 -2.046875,-0.78125 -2.828125,0 -0.78125,0.78125 -0.78125,2.046876 0,2.828126 z m 0,0"
     fill="#e9dacd"
     id="path84" />
  <path
     d="m 99.40625,95.652344 c 0.78125,0.777344 2.04688,0.777344 2.82813,0 0.78125,-0.78125 0.78125,-2.050782 0,-2.832032 -0.78125,-0.78125 -2.04688,-0.78125 -2.82813,0 -0.78125,0.78125 -0.78125,2.050782 0,2.832032 z m 0,0"
     fill="#e9dacd"
     id="path85" />
  <path
     d="m 88.09375,95.652344 c 0.78125,0.777344 2.046875,0.777344 2.828125,0 0.78125,-0.78125 0.78125,-2.050782 0,-2.832032 -0.78125,-0.78125 -2.046875,-0.78125 -2.828125,0 -0.78125,0.78125 -0.78125,2.050782 0,2.832032 z m 0,0"
     fill="#e9dacd"
     id="path86" />
  <path
     d="m 93.75,101.30859 c 0.78125,0.78125 2.046875,0.78125 2.828125,0 0.78125,-0.78125 0.78125,-2.046871 0,-2.828121 -0.78125,-0.78125 -2.046875,-0.78125 -2.828125,0 -0.78125,0.78125 -0.78125,2.046871 0,2.828121 z m 0,0"
     fill="#e9dacd"
     id="path87" />
  <path
     d="m 82.4375,101.30859 c 0.78125,0.78125 2.046875,0.78125 2.828125,0 0.78125,-0.78125 0.78125,-2.046871 0,-2.828121 -0.78125,-0.78125 -2.046875,-0.78125 -2.828125,0 -0.78125,0.78125 -0.78125,2.046871 0,2.828121 z m 0,0"
     fill="#e9dacd"
     id="path88" />
  <path
     d="m 88.09375,106.96484 c 0.78125,0.78125 2.046875,0.78125 2.828125,0 0.78125,-0.78125 0.78125,-2.04687 0,-2.82812 -0.78125,-0.78125 -2.046875,-0.78125 -2.828125,0 -0.78125,0.78125 -0.78125,2.04687 0,2.82812 z m 0,0"
     fill="#e9dacd"
     id="path89" />
  <path
     d="M 84.15625,75.605469 71.609375,88.152344 c -2.632813,2.628906 -6.894531,2.628906 -9.527344,0 L 50.164062,76.234375 c -2.628906,-2.632813 -2.628906,-6.894531 0,-9.527344 L 62.710938,54.160156 c 2.632812,-2.628906 6.894531,-2.628906 9.527343,0 L 84.15625,66.078125 c 2.628906,2.632813 2.628906,6.894531 0,9.527344 z m 0,0"
     fill="url(#i)"
     id="path90"
     style="fill:url(#linearGradient7)" />
  <path
     d="M 47.125,62.953125 58.851562,51.230469 c 2.457032,-2.460938 6.441407,-2.460938 8.902344,0 l 11.136719,11.136719 c 2.457031,2.457031 2.457031,6.441406 0,8.902343 L 67.164062,82.992188 c -2.457031,2.457031 -6.441406,2.457031 -8.902343,0 L 47.125,71.855469 c -2.457031,-2.457031 -2.457031,-6.445313 0,-8.902344 z m 0,0"
     fill="url(#k)"
     id="path91"
     style="fill:url(#linearGradient8)" />
  <path
     d="M 49.257812,65.039062 60.984375,53.316406 c 2.457031,-2.460937 6.441406,-2.460937 8.902344,0 l 11.136719,11.136719 c 2.457031,2.457031 2.457031,6.441406 0,8.898437 L 69.296875,85.078125 c -2.457031,2.457031 -6.445313,2.457031 -8.902344,0 L 49.257812,73.941406 c -2.457031,-2.457031 -2.457031,-6.445312 0,-8.902344 z m 0,0"
     fill="#c9a284"
     id="path92" />
  <path
     d="M 45.871094,62.523438 58.417969,49.980469 c 2.632812,-2.632813 6.894531,-2.632813 9.527343,0 l 11.917969,11.914062 c 2.628907,2.632813 2.628907,6.898438 0,9.527344 L 67.316406,83.96875 c -2.632812,2.628906 -6.894531,2.628906 -9.527344,0 L 45.871094,72.050781 c -2.628906,-2.628906 -2.628906,-6.894531 0,-9.527343 z m 0,0"
     fill="url(#l)"
     id="path93"
     style="fill:url(#linearGradient9)" />
  <g
     mask="url(#s)"
     id="g98">
    <g
       clip-path="url(#w)"
       id="g97">
      <g
         mask="url(#t)"
         id="g96">
        <g
           clip-path="url(#v)"
           id="g95">
          <path
             d="M 98.160156,80.640625 128,110.48047 V 89.269531 l -8.62891,-8.628906 z"
             id="path95"
             style="display:inline;fill:url(#linearGradient109)" />
          <path
             d="M 13.308844,80.640625 60.664312,128 H 81.879156 L 34.519781,80.640625 Z"
             id="path1"
             style="fill:url(#linearGradient101)" />
          <path
             d="M -7.7770308,80.640625 39.578437,128 H 60.793281 L 13.433906,80.640625 Z"
             id="path1-3"
             style="fill:url(#linearGradient99);fill-opacity:1" />
          <path
             d="M 55.730469,80.640625 103.09375,128 h 21.21484 L 76.945312,80.640625 Z m 0,0 L 103.09375,128 h 21.21484 L 76.945312,80.640625 Z"
             id="path1-7"
             style="fill:url(#linearGradient105)" />
          <path
             d="M 76.94531,80.640623 124.30859,128 h 21.21484 L 98.160153,80.640623 Z m 0,0 L 124.30859,128 h 21.21484 L 98.160153,80.640623 Z"
             id="path1-7-2"
             style="fill:url(#linearGradient106)" />
          <path
             d="M 34.515626,80.640625 81.878907,128 H 103.09376 L 55.730469,80.640625 Z m 0,0 L 81.878907,128 H 103.09376 L 55.730469,80.640625 Z"
             id="path1-7-6"
             style="fill:url(#linearGradient103)" />
        </g>
      </g>
    </g>
  </g>
</svg>
